<?xml version="1.0" encoding="utf-8"?>
<!-- Generator: Adobe Illustrator 26.0.0, SVG Export Plug-In . SVG Version: 6.00 Build 0)  -->
<svg xmlns="http://www.w3.org/2000/svg" xmlns:xlink="http://www.w3.org/1999/xlink" style="isolation:isolate" viewBox="0 0 108 35" width="108" height="35">
<style type="text/css">
	.st0{display:none;fill-rule:evenodd;clip-rule:evenodd;fill:#FFFFFF;}
	.st1{fill:#FFFFFF;}
	.st2{opacity:0;fill:none;}
</style>
<path class="st0" d="M46.9,12.3l4.5,11.4h-1.6l0,0c-0.2,0-0.3,0-0.5-0.1l0,0l0,0c-0.1-0.1-0.2-0.2-0.3-0.3l0,0l-0.8-2.3h-4.7
	l-0.8,2.3l0,0c0,0.1-0.1,0.2-0.2,0.3l0,0l0,0c-0.1,0.1-0.3,0.1-0.5,0.1l0,0h-1.6l4.5-11.4H46.9L46.9,12.3z M45.4,15.6l-1.4,3.8h3.6
	l-1.4-3.8l0,0c-0.1-0.2-0.1-0.4-0.2-0.6l0,0l0,0c-0.1-0.2-0.2-0.5-0.2-0.7l0,0l0,0c-0.1,0.3-0.1,0.5-0.2,0.7l0,0l0,0
	C45.6,15.2,45.5,15.4,45.4,15.6L45.4,15.6L45.4,15.6z M56,23.8L56,23.8L56,23.8c-0.7,0-1.2-0.2-1.6-0.6l0,0l0,0
	c-0.4-0.4-0.6-0.9-0.6-1.6l0,0V17H53l0,0c-0.1,0-0.2,0-0.3-0.1l0,0l0,0c-0.1-0.1-0.1-0.2-0.1-0.3l0,0v-0.8l1.3-0.2l0.4-2.2l0,0
	c0-0.1,0.1-0.2,0.1-0.2l0,0l0,0c0.1-0.1,0.2-0.1,0.3-0.1l0,0h1v2.5h2.1V17h-2.1v4.4l0,0c0,0.3,0.1,0.4,0.2,0.6l0,0l0,0
	c0.1,0.1,0.3,0.2,0.5,0.2l0,0l0,0c0.1,0,0.2,0,0.3,0l0,0l0,0c0.1,0,0.2-0.1,0.2-0.1l0,0l0,0c0.1,0,0.1-0.1,0.2-0.1l0,0l0,0
	c0,0,0.1,0,0.1,0l0,0l0,0c0.1,0,0.1,0,0.1,0l0,0l0,0c0,0,0.1,0.1,0.1,0.1l0,0l0.6,0.9l0,0c-0.3,0.2-0.6,0.4-1,0.5l0,0l0,0
	C56.8,23.7,56.4,23.8,56,23.8z M60.4,12h1.9v11.7h-1.9V12L60.4,12z M71.7,18.6v5.1h-0.9l0,0c-0.2,0-0.3,0-0.4-0.1l0,0l0,0
	c-0.1-0.1-0.2-0.2-0.2-0.3l0,0L70,22.7l0,0c-0.2,0.2-0.4,0.3-0.6,0.5l0,0l0,0c-0.2,0.1-0.4,0.3-0.6,0.3l0,0l0,0
	c-0.2,0.1-0.4,0.2-0.7,0.2l0,0l0,0c-0.2,0-0.5,0.1-0.8,0.1l0,0l0,0c-0.3,0-0.7,0-0.9-0.1l0,0l0,0c-0.3-0.1-0.5-0.2-0.7-0.4l0,0l0,0
	c-0.2-0.2-0.4-0.4-0.5-0.7l0,0l0,0c-0.1-0.3-0.2-0.6-0.2-1l0,0l0,0c0-0.3,0.1-0.6,0.2-0.9l0,0l0,0c0.2-0.3,0.4-0.6,0.8-0.8l0,0l0,0
	c0.4-0.2,0.9-0.4,1.5-0.6l0,0l0,0c0.6-0.2,1.4-0.2,2.3-0.2l0,0v-0.5l0,0c0-0.5-0.1-0.9-0.3-1.2l0,0l0,0c-0.2-0.3-0.6-0.4-1-0.4l0,0
	l0,0c-0.3,0-0.6,0-0.8,0.1l0,0l0,0c-0.2,0.1-0.4,0.2-0.5,0.2l0,0l0,0c-0.2,0.1-0.3,0.2-0.4,0.2l0,0l0,0c-0.1,0.1-0.3,0.1-0.4,0.1
	l0,0l0,0c-0.1,0-0.2,0-0.3-0.1l0,0l0,0c-0.1-0.1-0.2-0.2-0.2-0.3l0,0l-0.4-0.6l0,0c0.9-0.8,2-1.3,3.4-1.3l0,0l0,0
	c0.5,0,0.9,0.1,1.3,0.2l0,0l0,0c0.4,0.2,0.7,0.4,0.9,0.6l0,0l0,0c0.3,0.3,0.5,0.6,0.6,1l0,0l0,0C71.7,17.7,71.7,18.1,71.7,18.6
	L71.7,18.6L71.7,18.6z M68,22.4L68,22.4L68,22.4c0.2,0,0.4,0,0.6-0.1l0,0l0,0c0.2,0,0.3-0.1,0.5-0.2l0,0l0,0
	c0.1-0.1,0.3-0.2,0.4-0.3l0,0l0,0c0.1-0.1,0.3-0.2,0.4-0.4l0,0v-1.3l0,0c-0.6,0-1,0-1.4,0.1l0,0l0,0c-0.4,0.1-0.7,0.2-0.9,0.3l0,0
	l0,0c-0.2,0.1-0.4,0.2-0.5,0.4l0,0l0,0c-0.1,0.1-0.1,0.3-0.1,0.5l0,0l0,0c0,0.3,0.1,0.6,0.3,0.7l0,0l0,0
	C67.4,22.4,67.6,22.4,68,22.4z M76.5,23.6h-1.9v-8.1h1.2l0,0c0.3,0,0.4,0.1,0.5,0.4l0,0l0.1,0.6l0,0c0.2-0.2,0.3-0.3,0.5-0.5l0,0
	l0,0c0.2-0.1,0.4-0.3,0.6-0.4l0,0l0,0c0.2-0.1,0.4-0.2,0.6-0.2l0,0l0,0c0.2-0.1,0.5-0.1,0.8-0.1l0,0l0,0c0.4,0,0.8,0.1,1.2,0.2l0,0
	l0,0c0.3,0.1,0.6,0.4,0.9,0.6l0,0l0,0c0.2,0.3,0.4,0.6,0.5,1l0,0l0,0c0.1,0.4,0.2,0.8,0.2,1.2l0,0v5.1h-1.9v-5.1l0,0
	c0-0.5-0.1-0.9-0.3-1.1l0,0l0,0c-0.2-0.3-0.6-0.4-1-0.4l0,0l0,0c-0.3,0-0.6,0.1-0.9,0.2l0,0l0,0c-0.3,0.2-0.6,0.4-0.8,0.6l0,0V23.6
	L76.5,23.6z M87,23.8L87,23.8L87,23.8c-0.7,0-1.2-0.2-1.6-0.6l0,0l0,0c-0.4-0.4-0.6-0.9-0.6-1.6l0,0V17H84l0,0c-0.1,0-0.2,0-0.3-0.1
	l0,0l0,0c-0.1-0.1-0.1-0.2-0.1-0.3l0,0v-0.8l1.3-0.2l0.4-2.2l0,0c0-0.1,0.1-0.2,0.1-0.2l0,0l0,0c0.1-0.1,0.2-0.1,0.3-0.1l0,0h1v2.5
	h2.1V17h-2.1v4.4l0,0c0,0.3,0.1,0.4,0.2,0.6l0,0l0,0c0.1,0.1,0.3,0.2,0.5,0.2l0,0l0,0c0.1,0,0.2,0,0.3,0l0,0l0,0
	c0.1,0,0.2-0.1,0.2-0.1l0,0l0,0c0.1,0,0.1-0.1,0.2-0.1l0,0l0,0c0,0,0.1,0,0.1,0l0,0l0,0c0.1,0,0.1,0,0.1,0l0,0l0,0
	c0,0,0.1,0.1,0.1,0.1l0,0l0.6,0.9l0,0c-0.3,0.2-0.6,0.4-1,0.5l0,0l0,0C87.8,23.7,87.4,23.8,87,23.8z M91.4,15.6h1.9v8.1h-1.9V15.6
	L91.4,15.6z M93.6,13.2L93.6,13.2L93.6,13.2c0,0.2,0,0.3-0.1,0.5l0,0l0,0c-0.1,0.1-0.2,0.3-0.3,0.4l0,0l0,0
	c-0.1,0.1-0.2,0.2-0.4,0.3l0,0l0,0c-0.2,0.1-0.3,0.1-0.5,0.1l0,0l0,0c-0.2,0-0.3,0-0.5-0.1l0,0l0,0c-0.1-0.1-0.3-0.2-0.4-0.3l0,0
	l0,0c-0.1-0.1-0.2-0.2-0.3-0.4l0,0l0,0c-0.1-0.1-0.1-0.3-0.1-0.5l0,0l0,0c0-0.2,0-0.3,0.1-0.5l0,0l0,0c0.1-0.2,0.2-0.3,0.3-0.4l0,0
	l0,0c0.1-0.1,0.2-0.2,0.4-0.3l0,0l0,0c0.1-0.1,0.3-0.1,0.5-0.1l0,0l0,0c0.2,0,0.3,0,0.5,0.1l0,0l0,0c0.2,0.1,0.3,0.2,0.4,0.3l0,0
	l0,0c0.1,0.1,0.2,0.2,0.3,0.4l0,0l0,0C93.6,12.9,93.6,13.1,93.6,13.2z M101.6,16.5l-0.4,0.7l0,0c-0.1,0.1-0.1,0.1-0.2,0.2l0,0l0,0
	c-0.1,0-0.1,0.1-0.2,0.1l0,0l0,0c-0.1,0-0.2,0-0.3-0.1l0,0l0,0c-0.1-0.1-0.2-0.1-0.4-0.2l0,0l0,0c-0.1-0.1-0.3-0.1-0.5-0.2l0,0l0,0
	c-0.2-0.1-0.4-0.1-0.6-0.1l0,0l0,0c-0.4,0-0.7,0.1-0.9,0.2l0,0l0,0c-0.2,0.2-0.3,0.4-0.3,0.6l0,0l0,0c0,0.2,0.1,0.3,0.2,0.4l0,0l0,0
	c0.1,0.1,0.3,0.2,0.4,0.3l0,0l0,0c0.2,0.1,0.4,0.2,0.6,0.2l0,0l0,0c0.2,0.1,0.5,0.1,0.7,0.2l0,0l0,0c0.2,0.1,0.5,0.2,0.7,0.3l0,0
	l0,0c0.2,0.1,0.4,0.2,0.6,0.4l0,0l0,0c0.2,0.2,0.3,0.4,0.4,0.6l0,0l0,0c0.1,0.2,0.2,0.5,0.2,0.8l0,0l0,0c0,0.4-0.1,0.7-0.2,1.1l0,0
	l0,0c-0.1,0.3-0.3,0.6-0.6,0.8l0,0l0,0c-0.3,0.2-0.6,0.4-1,0.6l0,0l0,0c-0.4,0.1-0.9,0.2-1.4,0.2l0,0l0,0c-0.3,0-0.5,0-0.8-0.1l0,0
	l0,0c-0.3,0-0.5-0.1-0.8-0.2l0,0l0,0c-0.2-0.1-0.5-0.2-0.7-0.3l0,0l0,0c-0.2-0.1-0.4-0.3-0.5-0.4l0,0l0.4-0.7l0,0
	c0.1-0.1,0.1-0.2,0.2-0.2l0,0l0,0c0.1,0,0.2-0.1,0.3-0.1l0,0l0,0c0.1,0,0.2,0,0.3,0.1l0,0l0,0c0.1,0.1,0.2,0.1,0.4,0.2l0,0l0,0
	c0.1,0.1,0.3,0.2,0.5,0.2l0,0l0,0c0.2,0.1,0.4,0.1,0.7,0.1l0,0l0,0c0.2,0,0.4,0,0.6-0.1l0,0l0,0c0.2-0.1,0.3-0.1,0.4-0.2l0,0l0,0
	c0.1-0.1,0.2-0.2,0.2-0.3l0,0l0,0c0-0.1,0.1-0.2,0.1-0.4l0,0l0,0c0-0.2-0.1-0.3-0.2-0.5l0,0l0,0c-0.1-0.1-0.3-0.2-0.4-0.3l0,0l0,0
	c-0.2-0.1-0.4-0.2-0.6-0.2l0,0l0,0c-0.2-0.1-0.5-0.1-0.7-0.2l0,0l0,0c-0.2-0.1-0.5-0.2-0.7-0.3l0,0l0,0c-0.2-0.1-0.4-0.3-0.6-0.4
	l0,0l0,0c-0.2-0.2-0.3-0.4-0.4-0.6l0,0l0,0c-0.1-0.3-0.2-0.6-0.2-0.9l0,0l0,0c0-0.3,0.1-0.6,0.2-0.9l0,0l0,0
	c0.1-0.3,0.3-0.6,0.6-0.8l0,0l0,0c0.3-0.2,0.6-0.4,0.9-0.5l0,0l0,0c0.4-0.1,0.8-0.2,1.3-0.2l0,0l0,0c0.6,0,1.1,0.1,1.5,0.3l0,0l0,0
	C101,15.9,101.3,16.2,101.6,16.5L101.6,16.5L101.6,16.5z"/>
<path class="st1" d="M41.3,23.6c-0.6-0.4-1.1-0.9-1.5-1.6c-0.4-0.7-0.5-1.5-0.5-2.3v-3.4c0-0.9,0.2-1.7,0.5-2.3
	c0.4-0.7,0.8-1.2,1.5-1.6c0.6-0.4,1.4-0.6,2.2-0.6s1.6,0.2,2.2,0.6c0.6,0.4,1.1,0.9,1.5,1.6c0.4,0.7,0.5,1.5,0.5,2.3v3.4
	c0,0.9-0.2,1.7-0.5,2.3c-0.4,0.7-0.8,1.2-1.5,1.6s-1.4,0.6-2.2,0.6S41.9,24,41.3,23.6z M44.8,22.1c0.4-0.2,0.7-0.5,0.9-1
	c0.2-0.4,0.3-0.9,0.3-1.4v-3.5c0-0.5-0.1-1-0.3-1.4c-0.2-0.4-0.5-0.7-0.9-1c-0.4-0.2-0.8-0.3-1.3-0.3s-0.9,0.1-1.3,0.3
	c-0.4,0.2-0.7,0.5-0.9,1c-0.2,0.4-0.3,0.9-0.3,1.4v3.5c0,0.5,0.1,1,0.3,1.4c0.2,0.4,0.5,0.7,0.9,1c0.4,0.2,0.8,0.3,1.3,0.3
	S44.4,22.4,44.8,22.1z"/>
<path class="st1" d="M50.3,12H52V24h-1.7V12z M52.8,23.8c-0.4-0.3-0.7-0.6-0.9-1.1l0.1-1.8c0,0.4,0.1,0.7,0.2,0.9
	c0.1,0.3,0.3,0.5,0.6,0.6c0.3,0.1,0.6,0.2,0.9,0.2c0.6,0,1-0.2,1.3-0.5c0.3-0.3,0.5-0.8,0.5-1.4v-1.9c0-0.6-0.2-1.1-0.5-1.5
	c-0.3-0.3-0.7-0.5-1.3-0.5c-0.4,0-0.7,0.1-0.9,0.2c-0.3,0.1-0.4,0.3-0.6,0.6c-0.1,0.3-0.2,0.6-0.2,0.9l-0.2-1.7
	c0.3-0.5,0.6-0.9,1-1.2c0.4-0.3,0.9-0.4,1.4-0.4c0.6,0,1.1,0.1,1.6,0.4c0.4,0.3,0.8,0.7,1,1.2c0.2,0.5,0.3,1.2,0.3,1.9v1.9
	c0,0.7-0.1,1.4-0.3,1.9c-0.2,0.5-0.6,0.9-1,1.2c-0.4,0.3-1,0.4-1.6,0.4C53.6,24.1,53.2,24,52.8,23.8z"/>
<path class="st1" d="M61.2,24c-0.4-0.1-0.9-0.2-1.2-0.4s-0.7-0.4-1.1-0.7l1-1.2c0.5,0.4,0.9,0.6,1.4,0.8c0.5,0.2,0.9,0.3,1.4,0.3
	c0.7,0,1.2-0.1,1.5-0.3c0.3-0.2,0.5-0.5,0.5-0.9c0-0.3-0.1-0.5-0.3-0.6c-0.2-0.1-0.4-0.2-0.7-0.3c-0.3,0-0.7-0.1-1.1-0.1
	c0,0-0.1,0-0.1,0c-0.1,0-0.1,0-0.1,0c0,0,0,0-0.1,0c0,0,0,0-0.1,0c-0.6,0-1-0.1-1.4-0.2c-0.4-0.1-0.7-0.3-1-0.7
	c-0.3-0.3-0.4-0.8-0.4-1.4s0.1-1.1,0.4-1.5c0.2-0.4,0.6-0.7,1.1-0.9c0.5-0.2,1.1-0.3,1.9-0.3c0.4,0,0.9,0,1.3,0.1
	c0.4,0.1,0.8,0.2,1.2,0.4c0.4,0.2,0.7,0.4,1.1,0.6l-1,1.2c-0.4-0.3-0.9-0.5-1.3-0.6s-0.8-0.2-1.2-0.2c-0.6,0-1,0.1-1.3,0.3
	c-0.3,0.2-0.4,0.5-0.4,0.9c0,0.2,0.1,0.4,0.2,0.5s0.4,0.2,0.6,0.2s0.6,0.1,1.1,0.1c0,0,0.1,0,0.1,0s0.1,0,0.1,0c0,0,0,0,0,0s0,0,0,0
	c0.6,0,1.1,0.1,1.5,0.2c0.4,0.1,0.8,0.4,1.1,0.7c0.3,0.4,0.4,0.9,0.4,1.6c0,0.6-0.1,1.1-0.4,1.5c-0.3,0.4-0.7,0.7-1.2,0.9
	c-0.5,0.2-1.2,0.3-2,0.3C62.1,24.1,61.6,24.1,61.2,24z"/>
<path class="st1" d="M68.4,12h1.7v1.7h-1.7V12z M68.4,15.4h1.7V24h-1.7V15.4z"/>
<path class="st1" d="M73.7,23.8c-0.4-0.3-0.8-0.7-1-1.2c-0.2-0.5-0.3-1.2-0.3-1.9v-1.9c0-0.7,0.1-1.4,0.3-1.9c0.2-0.5,0.6-0.9,1-1.2
	c0.4-0.3,1-0.4,1.6-0.4c0.5,0,1,0.1,1.4,0.4c0.4,0.3,0.8,0.6,1,1.1l-0.2,1.8c0-0.4-0.1-0.7-0.2-0.9S77,17.1,76.8,17
	c-0.3-0.1-0.6-0.2-0.9-0.2c-0.6,0-1,0.2-1.3,0.5c-0.3,0.3-0.5,0.8-0.5,1.5v1.9c0,0.6,0.2,1.1,0.5,1.4c0.3,0.3,0.7,0.5,1.3,0.5
	c0.4,0,0.7-0.1,0.9-0.2c0.3-0.1,0.4-0.3,0.6-0.6s0.2-0.6,0.2-1l0.1,1.8c-0.2,0.4-0.5,0.8-0.8,1.1c-0.4,0.3-0.9,0.4-1.4,0.4
	C74.7,24.2,74.2,24,73.7,23.8z M77.5,12h1.7V24h-1.7V12z"/>
<path class="st1" d="M81.8,12h1.7v1.7h-1.7V12z M81.8,15.4h1.7V24h-1.7V15.4z"/>
<path class="st1" d="M86.4,23.5c-0.5-0.4-0.8-1.1-0.8-2c0-0.9,0.2-1.5,0.7-1.9c0.5-0.4,1.2-0.6,2.2-0.6H91l0.1,1.4h-2.6
	c-0.4,0-0.8,0.1-1,0.3c-0.2,0.2-0.3,0.5-0.3,0.9c0,0.4,0.1,0.8,0.4,1c0.3,0.2,0.7,0.3,1.3,0.3c0.6,0,1.1-0.1,1.4-0.2
	c0.3-0.1,0.5-0.4,0.5-0.6l0.2,1.2c-0.2,0.2-0.3,0.4-0.6,0.6S90.1,24,89.8,24c-0.3,0.1-0.6,0.1-1,0.1C87.8,24.1,87,23.9,86.4,23.5z
	 M90.9,18.6c0-0.6-0.2-1-0.5-1.3c-0.3-0.3-0.7-0.5-1.3-0.5c-0.3,0-0.7,0.1-1,0.2s-0.6,0.3-0.9,0.4l-1.2-0.8c0.3-0.4,0.8-0.7,1.3-0.9
	c0.5-0.2,1.1-0.3,1.8-0.3c0.7,0,1.3,0.1,1.8,0.4c0.5,0.3,0.9,0.6,1.2,1.1c0.3,0.5,0.4,1.1,0.4,1.7V24h-1.6V18.6z"/>
<path class="st1" d="M95.1,15.4h1.7V24h-1.7V15.4z M100.3,18.8c0-0.6-0.2-1.1-0.5-1.4c-0.3-0.3-0.8-0.5-1.3-0.5
	c-0.6,0-1,0.1-1.3,0.4s-0.5,0.7-0.5,1.2l-0.2-1.7c0.3-0.5,0.6-0.9,1-1.2s0.9-0.4,1.4-0.4c0.9,0,1.7,0.3,2.2,0.9
	c0.5,0.6,0.8,1.5,0.8,2.6V24h-1.7V18.8z"/>
<g>
	<path class="st1" d="M29.9,9.2L15.4,0.9L1,9.2v16.7l4.8,2.8V12l9.6-5.6l9.6,5.6v16.7l4.8-2.8V9.2z"/>
	<path class="st1" d="M20.3,14.8L15.4,12l-4.8,2.8v5.6l4.8,2.8l4.8-2.8V14.8z"/>
	<path class="st1" d="M20.3,25.9l-4.8,2.8l-4.8-2.8v5.6l4.8,2.8l4.8-2.8V25.9z"/>
</g>
<rect y="0" class="st2" width="108" height="35"/>
</svg>
